<svg id="Capa_1" data-name="Capa 1" xmlns="http://www.w3.org/2000/svg" viewBox="0 0 718.57 757.25"><path d="M288.8,67.29c5.37,32.94,10.64,65.26,16,98.23-92,30-153.74,90.47-179.67,184.39-18.28,66.25-9.39,130.36,23.62,190.55C215,661.17,364.1,708.79,488,648.71,555.55,616,600.8,563,623.05,491.41s12.89-140.55-23.4-206.59l93-36.59c60.13,107.46,62.33,267-35.61,390.45-99.36,125.21-269,169.74-416.23,109.83C91,687.53,6,540.22,17.22,390,29.88,219.78,152.68,99.56,288.8,67.29Z" transform="translate(-16.24 -17.63)"/><path d="M290.46,551.21h11.27q99.84,0,199.66.06A126.63,126.63,0,0,1,522,552.74c16.64,2.78,26.64,15.13,26.5,31.87-.13,16.23-10.22,28.12-26.64,30.9a99.85,99.85,0,0,1-16.47,1.38q-120.12.14-240.25,0a182.36,182.36,0,0,1-19.82-1.17q-33-3.69-36.41-37a104.27,104.27,0,0,1-.37-10.76q0-152,0-304c0-2.21,0-4.42,0-6.63.94-27,15.23-41.61,42.43-42.65,13.52-.52,27.06-.34,40.59-.34q104,0,207.94.06a87.54,87.54,0,0,1,18.86,1.81c15,3.34,23.48,14.52,23.47,29.8,0,15-8.2,26-22.73,29.61a73.49,73.49,0,0,1-17.2,1.88q-100.65.18-201.31.07H290.46v98.05c25.49,0,50.54-.06,75.59.06a57.94,57.94,0,0,1,12.25,1.31c17.63,3.91,25.38,14.3,24.65,32.61-.59,15.06-10.83,26.35-27.85,27.32-21.47,1.24-43.05.5-64.59.6-6.54,0-13.09,0-20.05,0Z" transform="translate(-16.24 -17.63)"/><path d="M318.32,124.51C313.2,93,308,61,302.82,29.17c149.61-41.22,328.8,30,404.57,181l-87,34.31C546,138,445.88,98,318.32,124.51Z" transform="translate(-16.24 -17.63)"/><path d="M442.45,452.35c0,25.31.06,50.63-.06,75.94,0,3.81.29,8.41-1.63,11.22-2.34,3.4-7,7.47-10.44,7.27-3.87-.23-8.06-4.38-11-7.79-1.65-1.92-1.39-5.78-1.4-8.76q-.13-48.06,0-96.11c0-13.32,4-17.19,17.34-17.4,21.31-.33,21.67-.09,27.12,20.3,5.62,21,11.18,42,18.12,63.24,2.21-8,4.48-16.06,6.62-24.12,4-15.18,7.9-30.41,12-45.57,3.14-11.53,6.14-13.69,18.11-13.86h.83c21.89-.18,23.81,1.7,23.81,23.27,0,29.82,0,59.65-.08,89.47,0,3.52.22,7.88-1.65,10.33-2.51,3.3-7,7.08-10.55,7s-8.15-3.88-10.51-7.28c-1.94-2.81-1.69-7.41-1.71-11.22-.13-24.81-.07-49.62-1.61-74.66Q509,480.27,502.2,506.89c-2.24,8.81-4.41,17.64-6.76,26.42-2.64,9.87-7.54,14.22-15.77,14-9-.2-13.24-6.07-15.25-13.83C458.08,509,452,484.37,445.74,459.8c-.65-2.57-1.36-5.11-2-7.67Z" transform="translate(-16.24 -17.63)"/><path d="M442.45,316.5c0,25.07.05,50.13-.05,75.2,0,3.83.51,8.54-1.44,11.25-2.53,3.52-7.32,7.55-11.07,7.48s-8-4.45-10.67-8c-1.71-2.25-1.29-6.36-1.3-9.64q-.12-47.61-.05-95.22c0-12.58,3.62-16.32,16-17l.82-.05c21.09-.89,22.32.06,27.7,20.41,5.56,21,11.22,42,17.51,65.54,4-14.65,7.31-27,10.64-39.26s6.68-24.46,9.88-36.72c1.71-6.56,5.84-9.32,12.51-9.78,26.41-1.78,29,.5,29,26.95,0,28.43.06,56.86-.07,85.28,0,3.79.22,8.51-1.82,11.12-2.5,3.22-7.37,6.56-11,6.36s-8-4.14-10.08-7.63c-1.91-3.22-1.52-8-1.54-12.1-.12-24.26-.06-48.53-1.6-73.15-.71,2.67-1.44,5.32-2.12,8-6,23.49-11.8,47-17.94,70.46-3,11.33-7.05,14.84-15.77,14.83-8.44,0-13-4-15.88-15-6.24-24-12.17-48-18.24-72.06-.64-2.54-1.43-5-2.15-7.56Z" transform="translate(-16.24 -17.63)"/></svg>